<svg width="278" height="91" viewBox="0 0 278 91" fill="none" xmlns="http://www.w3.org/2000/svg">
<mask id="path-1-outside-1_1_12" maskUnits="userSpaceOnUse" x="0" y="0" width="278" height="91" fill="black">
<rect fill="white" width="278" height="91"/>
<path d="M20.8148 73.9062C18.824 73.9062 16.9625 73.7252 15.2302 73.3633C13.5238 73.0271 12.0888 72.5747 10.9254 72.0059C9.76189 71.4371 8.80525 70.8941 8.05546 70.377C7.33153 69.8599 6.72394 69.3428 6.23269 68.8257L7.20225 59.4016C8.2623 60.8236 9.68432 62.0647 11.4683 63.1247C13.2523 64.1589 15.1785 64.676 17.2469 64.676C19.3153 64.676 20.8019 64.4562 21.7068 64.0167C22.6376 63.5772 23.103 62.7757 23.103 61.6122C23.103 60.3712 22.573 59.3111 21.5129 58.4321C20.4787 57.553 18.6818 56.4929 16.1222 55.2519C15.1914 54.7865 14.4028 54.3728 13.7565 54.0109C13.1101 53.623 12.244 53.0025 11.1581 52.1493C10.098 51.2703 9.23186 50.3653 8.55963 49.4346C7.88741 48.4779 7.29274 47.2627 6.77565 45.789C6.25855 44.2894 6 42.6864 6 40.98C6 31.7498 11.2098 27.1347 21.6293 27.1347C23.284 27.1347 24.8353 27.3157 26.2832 27.6777C27.7569 28.0138 28.9074 28.3887 29.7348 28.8024C30.5621 29.216 31.3119 29.7073 31.9842 30.2761C32.6822 30.819 33.1218 31.2069 33.3028 31.4396C33.4837 31.6464 33.613 31.8144 33.6906 31.9437L31.7515 39.4287C30.7431 38.2394 29.4762 37.3603 27.9508 36.7915C26.4512 36.1969 25.0163 35.8995 23.646 35.8995C20.3365 35.8995 18.6818 36.9337 18.6818 39.0021C18.6818 39.5451 18.7852 40.0363 18.9921 40.4758C19.1989 40.9154 19.535 41.3161 20.0004 41.6781C20.4658 42.0401 20.8924 42.3503 21.2802 42.6089C21.6939 42.8674 22.2498 43.1906 22.9479 43.5784C23.6718 43.9404 24.2148 44.2377 24.5767 44.4704C28.3515 46.0734 31.118 47.9738 32.8762 50.1714C34.6601 52.3691 35.5521 55.0451 35.5521 58.1994C35.5521 63.3186 34.2852 67.2227 31.7515 69.9116C29.2435 72.5747 25.598 73.9062 20.8148 73.9062Z"/>
<path d="M52.6148 73.0918H40.0882V47.9996L37.7612 46.5647V42.415L46.0994 40.1268H52.6924V45.1297C52.8217 44.9487 53.0027 44.716 53.2354 44.4316C53.4939 44.1214 53.9593 43.6431 54.6315 42.9967C55.3038 42.3503 55.9889 41.7815 56.687 41.2903C57.4109 40.799 58.2771 40.3595 59.2854 39.9717C60.3196 39.558 61.3409 39.3511 62.3492 39.3511C64.9347 39.3511 66.9126 39.8424 68.2829 40.8249C69.6532 41.8074 70.6228 43.4104 71.1916 45.6339C72.0706 44.1084 73.4151 42.6864 75.2249 41.3678C77.0606 40.0234 79.0773 39.3511 81.275 39.3511C83.7053 39.3511 85.5928 39.7778 86.9372 40.631C88.3075 41.4583 89.3029 42.8803 89.9234 44.897C90.544 46.9137 90.8542 49.7577 90.8542 53.4291V73.0918H78.25V52.3044C78.25 51.1668 77.9785 50.2748 77.4355 49.6285C76.8926 48.9821 76.0652 48.6589 74.9535 48.6589C74.2037 48.6589 73.1824 49.2794 71.8897 50.5205C71.9672 51.7615 72.006 53.1059 72.006 54.5538V73.0918H59.2078V52.3044C59.2854 49.8741 58.2512 48.6589 56.1053 48.6589C55.9501 48.6589 55.795 48.6718 55.6399 48.6977C55.5106 48.7235 55.3813 48.7494 55.252 48.7753C55.1486 48.8011 55.0193 48.8528 54.8642 48.9304C54.7349 48.9821 54.6186 49.0338 54.5152 49.0855C54.4118 49.1114 54.2954 49.176 54.1661 49.2794C54.0369 49.357 53.9334 49.4216 53.8559 49.4733C53.7783 49.525 53.662 49.6155 53.5068 49.7448C53.3776 49.8482 53.2741 49.9258 53.1966 49.9775C53.1449 50.0292 53.0415 50.1197 52.8863 50.249C52.757 50.3524 52.6666 50.43 52.6148 50.4817V73.0918Z"/>
<path d="M112.516 69.6401L112.128 70.0668C111.87 70.377 111.469 70.739 110.926 71.1527C110.409 71.5663 109.801 71.98 109.103 72.3937C108.431 72.8074 107.604 73.1564 106.621 73.4408C105.639 73.7511 104.63 73.9062 103.596 73.9062C96.6152 73.9062 93.1248 70.4546 93.1248 63.5513C93.1248 62.2069 93.3704 60.9788 93.8617 59.867C94.3529 58.7294 94.9864 57.7728 95.762 56.9971C96.5377 56.2215 97.4684 55.5363 98.5543 54.9416C99.6402 54.3211 100.726 53.8428 101.812 53.5067C102.924 53.1447 104.087 52.8474 105.302 52.6147C106.518 52.382 107.604 52.2269 108.56 52.1493C109.517 52.0718 110.435 52.033 111.314 52.033V51.3349C111.314 49.7577 110.887 48.646 110.034 47.9996C109.207 47.3532 107.862 47.0301 106.001 47.0301C104.398 47.0301 102.73 47.224 100.998 47.6118C99.2653 47.9738 97.908 48.4133 96.9255 48.9304L94.4434 43.656C96.2015 42.5184 98.4897 41.523 101.308 40.6697C104.126 39.7907 106.996 39.3511 109.918 39.3511C112.503 39.3511 114.636 39.6097 116.317 40.1268C117.997 40.618 119.355 41.4712 120.389 42.6864C121.449 43.8758 122.199 45.4012 122.638 47.2627C123.078 49.0984 123.297 51.4383 123.297 54.2823V70.0668L124.383 73.0918H113.757L112.516 69.6401ZM109.452 67.0805C109.788 67.0805 110.099 67.0159 110.383 66.8866C110.693 66.7315 110.926 66.5893 111.081 66.46C111.236 66.3049 111.314 66.2273 111.314 66.2273V56.9195C109.737 56.9195 108.483 57.3591 107.552 58.2381C106.621 59.0914 106.156 60.4229 106.156 62.2327C106.156 65.4646 107.255 67.0805 109.452 67.0805Z"/>
<path d="M140.784 73.0918H128.257V47.9996L125.93 46.5647V42.1823L134.269 40.1268H137.41L138.535 49.357C139.595 43.0225 142.995 39.8553 148.734 39.8553C149.381 39.8553 150.053 39.9717 150.751 40.2044L149.433 54.0109C148.89 53.5196 147.7 53.274 145.865 53.274C143.227 53.274 141.534 53.9721 140.784 55.3682V73.0918Z"/>
<path d="M162.897 73.9062C159.407 73.9062 156.963 72.8591 155.567 70.7648C154.197 68.6706 153.512 65.1285 153.512 60.1385V46.9525H150.836V41.5617L155.412 40.1268L159.368 31.0905H166.193V40.1268H172.554V46.9525H166.077V61.3795C166.077 63.4479 166.374 64.8182 166.969 65.4904C167.564 66.1627 168.482 66.4988 169.723 66.4988C170.266 66.4988 170.757 66.4341 171.196 66.3049C171.636 66.1756 171.998 65.9946 172.282 65.7619V71.0363C171.894 71.4241 171.39 71.812 170.77 72.1998C170.149 72.5618 169.115 72.9366 167.667 73.3245C166.245 73.7123 164.655 73.9062 162.897 73.9062Z"/>
<path d="M212.349 82.4501C212.349 82.8397 212.138 83.1967 211.716 83.5214C211.294 83.8785 210.791 84.1869 210.207 84.4466C209.623 84.7063 209.038 84.901 208.454 85.0309C207.87 85.1932 207.415 85.2744 207.09 85.2744C206.344 85.2744 205.435 84.8848 204.364 84.1057C203.325 83.3266 202.286 82.4176 201.247 81.3788C200.208 80.34 199.234 79.285 198.325 78.2137C197.417 77.1424 196.735 76.3146 196.28 75.7303C195.306 76.3146 194.268 76.7366 193.164 76.9963C192.093 77.256 190.989 77.3859 189.853 77.3859C187.937 77.3859 186.249 77.0288 184.788 76.3146C183.36 75.6004 182.11 74.6428 181.039 73.4417C179.968 72.2405 179.043 70.8771 178.263 69.3513C177.517 67.7931 176.884 66.17 176.364 64.4819C175.845 62.7938 175.423 61.1058 175.098 59.4177C174.774 57.7296 174.498 56.1552 174.27 54.6943C173.784 51.8376 173.394 49.0296 173.102 46.2702C172.842 43.5109 172.712 40.7028 172.712 37.8461C172.712 35.4114 172.858 32.8468 173.151 30.1524C173.443 27.4255 173.93 24.7473 174.611 22.1178C175.293 19.4559 176.202 16.94 177.338 14.5702C178.507 12.1679 179.951 10.0579 181.672 8.23994C182.029 7.85038 182.484 7.41214 183.035 6.92519C183.587 6.43825 184.107 6.19478 184.594 6.19478C184.951 6.19478 185.275 6.29217 185.568 6.48694C185.892 6.68172 186.152 6.90896 186.347 7.16866C187.905 6.38955 189.593 6 191.411 6C193.975 6 196.167 6.60056 197.985 7.80169C199.803 8.97035 201.328 10.5286 202.562 12.4763C203.795 14.3917 204.753 16.5829 205.435 19.0501C206.149 21.5173 206.685 24.0331 207.042 26.5977C207.399 29.1298 207.626 31.597 207.723 33.9992C207.821 36.4015 207.87 38.5278 207.87 40.3782C207.87 42.7155 207.772 45.2476 207.577 47.9745C207.383 50.6689 207.026 53.3796 206.506 56.1065C206.019 58.8333 205.337 61.4628 204.461 63.9949C203.617 66.5271 202.546 68.7832 201.247 70.7635C202.481 72.1918 203.714 73.604 204.948 74.9999C206.214 76.3958 207.577 77.7105 209.038 78.9441C209.265 79.1064 209.558 79.3174 209.915 79.5771C210.304 79.8693 210.678 80.1615 211.035 80.4536C211.392 80.7783 211.7 81.1029 211.96 81.4275C212.22 81.7846 212.349 82.1255 212.349 82.4501ZM200.273 40.2808C200.273 39.3394 200.241 37.9922 200.176 36.2392C200.111 34.4862 199.981 32.5709 199.786 30.4932C199.592 28.4156 199.299 26.3055 198.91 24.163C198.52 21.988 198.001 20.024 197.352 18.271C196.702 16.4855 195.907 15.0409 194.966 13.9372C194.024 12.801 192.872 12.2329 191.508 12.2329C190.599 12.2329 189.836 12.5088 189.22 13.0607C188.635 13.5801 188.132 14.2618 187.71 15.1058C187.288 15.9174 186.915 16.7939 186.59 17.7353C186.298 18.6768 185.99 19.5695 185.665 20.4135C185.373 21.2251 185.016 21.9068 184.594 22.4587C184.204 22.9781 183.717 23.2378 183.133 23.2378C182.484 23.2378 181.899 23.1079 181.38 22.8482C180.731 25.1531 180.292 27.4742 180.065 29.8115C179.838 32.1164 179.724 34.4375 179.724 36.7748C179.724 37.5539 179.757 38.6414 179.822 40.0373C179.887 41.4332 180 43.0239 180.162 44.8094C180.325 46.5948 180.52 48.4939 180.747 50.5066C181.007 52.5193 181.331 54.5158 181.721 56.496C182.11 58.4763 182.549 60.3916 183.035 62.242C183.555 64.0599 184.139 65.6668 184.788 67.0627C185.47 68.4586 186.217 69.5786 187.028 70.4226C187.872 71.2342 188.814 71.64 189.853 71.64C190.307 71.64 190.745 71.5588 191.167 71.3965C191.622 71.2017 192.028 70.9582 192.385 70.6661C192.19 70.3739 191.849 69.887 191.362 69.2052C190.875 68.4911 190.323 67.6795 189.707 66.7705C189.122 65.8616 188.505 64.9201 187.856 63.9463C187.207 62.9399 186.606 61.9985 186.055 61.122C185.535 60.2455 185.097 59.4988 184.74 58.882C184.383 58.2328 184.204 57.8108 184.204 57.616C184.204 57.3238 184.318 57.0803 184.545 56.8856C184.772 56.6908 185.048 56.5447 185.373 56.4473C185.697 56.3499 186.022 56.285 186.347 56.2525C186.671 56.1876 186.931 56.1552 187.126 56.1552C188.392 56.1552 189.366 56.3824 190.047 56.8369C190.762 57.2914 191.508 58.0055 192.287 58.9794C193.034 59.9209 193.748 60.8947 194.43 61.9011C195.112 62.875 195.826 63.8489 196.572 64.8228C197.352 63.0373 197.985 61.122 198.472 59.0768C198.959 56.9992 199.332 54.9053 199.592 52.7952C199.851 50.6527 200.03 48.5264 200.127 46.4163C200.225 44.2737 200.273 42.2286 200.273 40.2808Z"/>
<path d="M233.775 44.5659C233.775 44.8905 233.742 45.2314 233.678 45.5885C233.613 45.9456 233.548 46.2702 233.483 46.5624C233.418 46.9195 233.353 47.2603 233.288 47.585C233.223 47.8771 233.191 48.1693 233.191 48.4615C233.191 51.4805 233.239 54.5158 233.337 57.5673C233.467 60.5863 233.791 63.6216 234.311 66.6731C234.473 67.8418 234.668 68.978 234.895 70.0817C235.122 71.1855 235.382 72.3055 235.674 73.4417L235.771 73.7338V73.6364C235.869 73.8637 235.95 74.1071 236.015 74.3668C236.112 74.5941 236.161 74.8376 236.161 75.0973C236.161 75.4543 236.064 75.7465 235.869 75.9737C235.706 76.201 235.495 76.3795 235.236 76.5094C234.976 76.6392 234.684 76.7204 234.359 76.7529C234.067 76.7853 233.791 76.8016 233.531 76.8016C232.46 76.8016 231.6 76.6879 230.951 76.4607C230.334 76.201 229.831 75.8601 229.441 75.4381C229.052 74.9836 228.759 74.448 228.565 73.8312C228.402 73.2144 228.256 72.5327 228.126 71.786L227.98 70.9095C227.85 70.4551 227.769 69.9681 227.737 69.4487C227.704 69.189 227.672 69.0754 227.639 69.1078C227.639 69.1078 227.623 68.978 227.591 68.7183C227.136 69.5299 226.601 70.4064 225.984 71.3478C225.4 72.2567 224.718 73.117 223.939 73.9286C223.192 74.7077 222.38 75.3732 221.504 75.9251C220.627 76.4445 219.686 76.7042 218.68 76.7042C217.284 76.7042 216.196 76.2822 215.417 75.4381C214.671 74.5941 214.119 73.5715 213.762 72.3704C213.404 71.1368 213.193 69.8707 213.129 68.5722C213.064 67.2412 213.031 66.0888 213.031 65.1149C213.031 61.4141 213.145 57.7458 213.372 54.11C213.632 50.4742 213.908 46.8221 214.2 43.1538C214.2 43.0564 214.2 42.9265 214.2 42.7642C214.232 42.6019 214.249 42.4721 214.249 42.3747C214.281 41.9202 214.313 41.4982 214.346 41.1086C214.378 40.7191 214.46 40.3457 214.589 39.9886V40.0373C214.719 39.5179 214.898 39.1446 215.125 38.9174C215.385 38.6901 215.774 38.5765 216.294 38.5765C216.781 38.5765 217.268 38.6739 217.755 38.8687C218.241 39.031 218.68 39.2745 219.069 39.5991C219.459 39.8913 219.767 40.2483 219.994 40.6704C220.254 41.0924 220.384 41.5631 220.384 42.0825C220.384 42.3422 220.384 42.6506 220.384 43.0077C220.384 43.3648 220.368 43.6732 220.335 43.9329C220.335 44.1601 220.319 44.4523 220.287 44.8094C220.287 45.134 220.287 45.4099 220.287 45.6372C220.027 48.7536 219.832 51.8538 219.702 54.9378C219.572 57.9893 219.508 61.0895 219.508 64.2384C219.508 65.1149 219.508 65.9914 219.508 66.8679C219.54 67.7444 219.637 68.6209 219.8 69.4974C220.871 68.134 221.796 66.3972 222.575 64.2871C223.354 62.1446 224.004 59.8884 224.523 57.5186C225.075 55.1163 225.513 52.7466 225.838 50.4092C226.195 48.0394 226.455 45.9456 226.617 44.1277C226.617 44.0303 226.617 43.9167 226.617 43.7868C226.649 43.6569 226.666 43.5433 226.666 43.4459C226.698 43.0888 226.731 42.748 226.763 42.4234C226.795 42.0987 226.909 41.7903 227.104 41.4982C227.104 41.206 227.12 40.8976 227.153 40.573C227.185 40.2483 227.266 39.9562 227.396 39.6965C227.526 39.4043 227.704 39.1771 227.932 39.0148C228.191 38.8524 228.548 38.7713 229.003 38.7713C230.301 38.7713 231.324 39.1771 232.071 39.9886C232.817 40.7677 233.223 41.7741 233.288 43.0077C233.45 43.2674 233.564 43.5271 233.629 43.7868C233.726 44.014 233.775 44.2737 233.775 44.5659Z"/>
<path d="M245.559 35.7522C245.559 36.3041 245.429 36.7099 245.169 36.9696C244.942 37.1968 244.504 37.3105 243.855 37.3105C243.563 37.3105 243.108 37.278 242.491 37.2131C241.874 37.1157 241.241 36.9858 240.592 36.8235C239.975 36.6612 239.423 36.434 238.937 36.1418C238.482 35.8496 238.255 35.4925 238.255 35.0705C238.255 34.9407 238.304 34.5836 238.401 33.9992C238.498 33.3824 238.612 32.7332 238.742 32.0515C238.904 31.3697 239.034 30.753 239.131 30.2011C239.261 29.6492 239.359 29.3408 239.424 29.2759V29.3246C239.586 29.0649 239.781 28.9026 240.008 28.8376C240.235 28.7727 240.462 28.7403 240.69 28.7403C240.982 28.7403 241.355 28.7889 241.81 28.8863C242.296 28.9513 242.767 29.0649 243.222 29.2272C243.709 29.357 244.147 29.5356 244.536 29.7628C244.926 29.9901 245.169 30.2335 245.267 30.4932C245.364 30.753 245.413 31.11 245.413 31.5645C245.445 31.9865 245.445 32.3761 245.413 32.7332C245.413 32.863 245.397 33.0254 245.364 33.2201C245.364 33.3824 245.364 33.5123 245.364 33.6097C245.364 33.772 245.364 33.9343 245.364 34.0966C245.397 34.2589 245.429 34.4213 245.462 34.5836C245.494 34.7459 245.51 34.9244 245.51 35.1192C245.543 35.314 245.559 35.525 245.559 35.7522ZM247.361 74.5616C247.361 75.3083 247.182 75.8439 246.825 76.1685C246.5 76.4607 245.965 76.6068 245.218 76.6068C244.829 76.6068 244.39 76.5581 243.903 76.4607C243.449 76.3633 242.994 76.2335 242.54 76.0711C242.085 75.8764 241.663 75.6491 241.274 75.3894C240.884 75.1297 240.592 74.8375 240.397 74.5129C240.268 74.3181 240.154 73.7176 240.057 72.7112C239.959 71.7049 239.878 70.4551 239.813 68.9618C239.781 67.4685 239.732 65.7966 239.667 63.9463C239.635 62.0959 239.602 60.2292 239.57 58.3464C239.57 56.4636 239.57 54.6294 239.57 52.8439C239.57 51.0585 239.57 49.5003 239.57 48.1693V44.4198C239.57 44.0952 239.57 43.7706 239.57 43.4459C239.602 43.1213 239.667 42.8454 239.764 42.6181C239.894 42.3584 240.073 42.1474 240.3 41.9851C240.56 41.8228 240.917 41.7416 241.371 41.7416C242.8 41.7416 243.838 42.1474 244.488 42.959C245.169 43.7381 245.591 44.7932 245.754 46.1241C245.916 48.1044 246.03 50.0846 246.095 52.0648C246.192 54.0126 246.273 55.9928 246.338 58.0055C246.403 59.8235 246.452 61.6252 246.484 63.4106C246.549 65.1636 246.663 66.9166 246.825 68.6696C246.857 69.0267 246.89 69.3676 246.922 69.6922C246.955 70.0168 247.004 70.3414 247.069 70.6661C247.133 71.3153 247.198 71.9646 247.263 72.6138C247.328 73.2306 247.361 73.8799 247.361 74.5616Z"/>
<path d="M272 71.2504C272 71.8347 271.757 72.3704 271.27 72.8573C270.783 73.3443 270.15 73.7825 269.371 74.1721C268.624 74.5292 267.764 74.8538 266.79 75.146C265.848 75.4381 264.923 75.6816 264.014 75.8764C263.105 76.0387 262.261 76.1685 261.482 76.2659C260.735 76.3633 260.151 76.412 259.729 76.412C258.917 76.412 258.057 76.3471 257.148 76.2172C256.239 76.0874 255.347 75.8926 254.47 75.6329C253.594 75.3407 252.766 74.9836 251.987 74.5616C251.208 74.1071 250.542 73.5715 249.99 72.9547V73.0034C249.73 72.7437 249.487 72.4353 249.26 72.0782C249 71.7211 248.87 71.3153 248.87 70.8608C248.87 70.5687 248.984 70.309 249.211 70.0817C249.438 69.8545 249.698 69.6922 249.99 69.5948C250.315 68.8157 250.656 68.0366 251.013 67.2575C251.37 66.4784 251.727 65.7155 252.084 64.9688L252.814 63.2645C254.535 59.8884 256.126 56.5447 257.586 53.2335C259.08 49.9223 260.557 46.4975 262.018 42.959L260.07 43.0564L257.684 43.2025L256.077 43.3972C255.622 43.4622 255.184 43.5109 254.762 43.5433C254.373 43.5758 253.967 43.592 253.545 43.592C252.311 43.592 251.694 42.9915 251.694 41.7903C251.694 41.2385 251.759 40.7515 251.889 40.3295C252.019 39.875 252.263 39.4692 252.62 39.1121C252.782 38.9174 253.204 38.7388 253.886 38.5765C254.6 38.3817 255.428 38.2194 256.369 38.0896C257.311 37.9272 258.317 37.7812 259.388 37.6513C260.492 37.5215 261.547 37.4078 262.553 37.3105C263.56 37.2131 264.452 37.1481 265.231 37.1157C266.043 37.0508 266.611 37.0183 266.936 37.0183C267.52 37.0183 268.056 37.0994 268.543 37.2618C269.062 37.4241 269.322 37.911 269.322 38.7226C269.322 39.1771 269.208 39.6802 268.981 40.2321C268.754 40.7515 268.51 41.2222 268.251 41.6442C268.315 41.8066 268.348 42.05 268.348 42.3747C268.348 42.7318 268.218 43.3323 267.958 44.1764C267.699 45.0204 267.342 46.043 266.887 47.2441C266.465 48.4452 265.962 49.7762 265.378 51.237C264.793 52.6979 264.176 54.1912 263.527 55.7169C262.91 57.2427 262.277 58.7684 261.628 60.2942C260.979 61.8199 260.362 63.2483 259.778 64.5793L257.051 70.9095C257.603 71.0394 258.236 71.1043 258.95 71.1043C260.411 71.1043 261.79 70.8284 263.089 70.2765C264.42 69.7246 265.556 69.1728 266.498 68.6209C267.049 68.3287 267.536 68.0853 267.958 67.8905C268.38 67.6632 268.721 67.5496 268.981 67.5496C269.403 67.5496 269.793 67.6795 270.15 67.9392C270.539 68.1664 270.864 68.4748 271.124 68.8644C271.416 69.2215 271.627 69.611 271.757 70.033C271.919 70.4551 272 70.8608 272 71.2504Z"/>
</mask>
<path d="M20.8148 73.9062C18.824 73.9062 16.9625 73.7252 15.2302 73.3633C13.5238 73.0271 12.0888 72.5747 10.9254 72.0059C9.76189 71.4371 8.80525 70.8941 8.05546 70.377C7.33153 69.8599 6.72394 69.3428 6.23269 68.8257L7.20225 59.4016C8.2623 60.8236 9.68432 62.0647 11.4683 63.1247C13.2523 64.1589 15.1785 64.676 17.2469 64.676C19.3153 64.676 20.8019 64.4562 21.7068 64.0167C22.6376 63.5772 23.103 62.7757 23.103 61.6122C23.103 60.3712 22.573 59.3111 21.5129 58.4321C20.4787 57.553 18.6818 56.4929 16.1222 55.2519C15.1914 54.7865 14.4028 54.3728 13.7565 54.0109C13.1101 53.623 12.244 53.0025 11.1581 52.1493C10.098 51.2703 9.23186 50.3653 8.55963 49.4346C7.88741 48.4779 7.29274 47.2627 6.77565 45.789C6.25855 44.2894 6 42.6864 6 40.98C6 31.7498 11.2098 27.1347 21.6293 27.1347C23.284 27.1347 24.8353 27.3157 26.2832 27.6777C27.7569 28.0138 28.9074 28.3887 29.7348 28.8024C30.5621 29.216 31.3119 29.7073 31.9842 30.2761C32.6822 30.819 33.1218 31.2069 33.3028 31.4396C33.4837 31.6464 33.613 31.8144 33.6906 31.9437L31.7515 39.4287C30.7431 38.2394 29.4762 37.3603 27.9508 36.7915C26.4512 36.1969 25.0163 35.8995 23.646 35.8995C20.3365 35.8995 18.6818 36.9337 18.6818 39.0021C18.6818 39.5451 18.7852 40.0363 18.9921 40.4758C19.1989 40.9154 19.535 41.3161 20.0004 41.6781C20.4658 42.0401 20.8924 42.3503 21.2802 42.6089C21.6939 42.8674 22.2498 43.1906 22.9479 43.5784C23.6718 43.9404 24.2148 44.2377 24.5767 44.4704C28.3515 46.0734 31.118 47.9738 32.8762 50.1714C34.6601 52.3691 35.5521 55.0451 35.5521 58.1994C35.5521 63.3186 34.2852 67.2227 31.7515 69.9116C29.2435 72.5747 25.598 73.9062 20.8148 73.9062Z" fill="white"/>
<path d="M52.6148 73.0918H40.0882V47.9996L37.7612 46.5647V42.415L46.0994 40.1268H52.6924V45.1297C52.8217 44.9487 53.0027 44.716 53.2354 44.4316C53.4939 44.1214 53.9593 43.6431 54.6315 42.9967C55.3038 42.3503 55.9889 41.7815 56.687 41.2903C57.4109 40.799 58.2771 40.3595 59.2854 39.9717C60.3196 39.558 61.3409 39.3511 62.3492 39.3511C64.9347 39.3511 66.9126 39.8424 68.2829 40.8249C69.6532 41.8074 70.6228 43.4104 71.1916 45.6339C72.0706 44.1084 73.4151 42.6864 75.2249 41.3678C77.0606 40.0234 79.0773 39.3511 81.275 39.3511C83.7053 39.3511 85.5928 39.7778 86.9372 40.631C88.3075 41.4583 89.3029 42.8803 89.9234 44.897C90.544 46.9137 90.8542 49.7577 90.8542 53.4291V73.0918H78.25V52.3044C78.25 51.1668 77.9785 50.2748 77.4355 49.6285C76.8926 48.9821 76.0652 48.6589 74.9535 48.6589C74.2037 48.6589 73.1824 49.2794 71.8897 50.5205C71.9672 51.7615 72.006 53.1059 72.006 54.5538V73.0918H59.2078V52.3044C59.2854 49.8741 58.2512 48.6589 56.1053 48.6589C55.9501 48.6589 55.795 48.6718 55.6399 48.6977C55.5106 48.7235 55.3813 48.7494 55.252 48.7753C55.1486 48.8011 55.0193 48.8528 54.8642 48.9304C54.7349 48.9821 54.6186 49.0338 54.5152 49.0855C54.4118 49.1114 54.2954 49.176 54.1661 49.2794C54.0369 49.357 53.9334 49.4216 53.8559 49.4733C53.7783 49.525 53.662 49.6155 53.5068 49.7448C53.3776 49.8482 53.2741 49.9258 53.1966 49.9775C53.1449 50.0292 53.0415 50.1197 52.8863 50.249C52.757 50.3524 52.6666 50.43 52.6148 50.4817V73.0918Z" fill="white"/>
<path d="M112.516 69.6401L112.128 70.0668C111.87 70.377 111.469 70.739 110.926 71.1527C110.409 71.5663 109.801 71.98 109.103 72.3937C108.431 72.8074 107.604 73.1564 106.621 73.4408C105.639 73.7511 104.63 73.9062 103.596 73.9062C96.6152 73.9062 93.1248 70.4546 93.1248 63.5513C93.1248 62.2069 93.3704 60.9788 93.8617 59.867C94.3529 58.7294 94.9864 57.7728 95.762 56.9971C96.5377 56.2215 97.4684 55.5363 98.5543 54.9416C99.6402 54.3211 100.726 53.8428 101.812 53.5067C102.924 53.1447 104.087 52.8474 105.302 52.6147C106.518 52.382 107.604 52.2269 108.56 52.1493C109.517 52.0718 110.435 52.033 111.314 52.033V51.3349C111.314 49.7577 110.887 48.646 110.034 47.9996C109.207 47.3532 107.862 47.0301 106.001 47.0301C104.398 47.0301 102.73 47.224 100.998 47.6118C99.2653 47.9738 97.908 48.4133 96.9255 48.9304L94.4434 43.656C96.2015 42.5184 98.4897 41.523 101.308 40.6697C104.126 39.7907 106.996 39.3511 109.918 39.3511C112.503 39.3511 114.636 39.6097 116.317 40.1268C117.997 40.618 119.355 41.4712 120.389 42.6864C121.449 43.8758 122.199 45.4012 122.638 47.2627C123.078 49.0984 123.297 51.4383 123.297 54.2823V70.0668L124.383 73.0918H113.757L112.516 69.6401ZM109.452 67.0805C109.788 67.0805 110.099 67.0159 110.383 66.8866C110.693 66.7315 110.926 66.5893 111.081 66.46C111.236 66.3049 111.314 66.2273 111.314 66.2273V56.9195C109.737 56.9195 108.483 57.3591 107.552 58.2381C106.621 59.0914 106.156 60.4229 106.156 62.2327C106.156 65.4646 107.255 67.0805 109.452 67.0805Z" fill="white"/>
<path d="M140.784 73.0918H128.257V47.9996L125.93 46.5647V42.1823L134.269 40.1268H137.41L138.535 49.357C139.595 43.0225 142.995 39.8553 148.734 39.8553C149.381 39.8553 150.053 39.9717 150.751 40.2044L149.433 54.0109C148.89 53.5196 147.7 53.274 145.865 53.274C143.227 53.274 141.534 53.9721 140.784 55.3682V73.0918Z" fill="white"/>
<path d="M162.897 73.9062C159.407 73.9062 156.963 72.8591 155.567 70.7648C154.197 68.6706 153.512 65.1285 153.512 60.1385V46.9525H150.836V41.5617L155.412 40.1268L159.368 31.0905H166.193V40.1268H172.554V46.9525H166.077V61.3795C166.077 63.4479 166.374 64.8182 166.969 65.4904C167.564 66.1627 168.482 66.4988 169.723 66.4988C170.266 66.4988 170.757 66.4341 171.196 66.3049C171.636 66.1756 171.998 65.9946 172.282 65.7619V71.0363C171.894 71.4241 171.39 71.812 170.77 72.1998C170.149 72.5618 169.115 72.9366 167.667 73.3245C166.245 73.7123 164.655 73.9062 162.897 73.9062Z" fill="white"/>
<path d="M212.349 82.4501C212.349 82.8397 212.138 83.1967 211.716 83.5214C211.294 83.8785 210.791 84.1869 210.207 84.4466C209.623 84.7063 209.038 84.901 208.454 85.0309C207.87 85.1932 207.415 85.2744 207.09 85.2744C206.344 85.2744 205.435 84.8848 204.364 84.1057C203.325 83.3266 202.286 82.4176 201.247 81.3788C200.208 80.34 199.234 79.285 198.325 78.2137C197.417 77.1424 196.735 76.3146 196.28 75.7303C195.306 76.3146 194.268 76.7366 193.164 76.9963C192.093 77.256 190.989 77.3859 189.853 77.3859C187.937 77.3859 186.249 77.0288 184.788 76.3146C183.36 75.6004 182.11 74.6428 181.039 73.4417C179.968 72.2405 179.043 70.8771 178.263 69.3513C177.517 67.7931 176.884 66.17 176.364 64.4819C175.845 62.7938 175.423 61.1058 175.098 59.4177C174.774 57.7296 174.498 56.1552 174.27 54.6943C173.784 51.8376 173.394 49.0296 173.102 46.2702C172.842 43.5109 172.712 40.7028 172.712 37.8461C172.712 35.4114 172.858 32.8468 173.151 30.1524C173.443 27.4255 173.93 24.7473 174.611 22.1178C175.293 19.4559 176.202 16.94 177.338 14.5702C178.507 12.1679 179.951 10.0579 181.672 8.23994C182.029 7.85038 182.484 7.41214 183.035 6.92519C183.587 6.43825 184.107 6.19478 184.594 6.19478C184.951 6.19478 185.275 6.29217 185.568 6.48694C185.892 6.68172 186.152 6.90896 186.347 7.16866C187.905 6.38955 189.593 6 191.411 6C193.975 6 196.167 6.60056 197.985 7.80169C199.803 8.97035 201.328 10.5286 202.562 12.4763C203.795 14.3917 204.753 16.5829 205.435 19.0501C206.149 21.5173 206.685 24.0331 207.042 26.5977C207.399 29.1298 207.626 31.597 207.723 33.9992C207.821 36.4015 207.87 38.5278 207.87 40.3782C207.87 42.7155 207.772 45.2476 207.577 47.9745C207.383 50.6689 207.026 53.3796 206.506 56.1065C206.019 58.8333 205.337 61.4628 204.461 63.9949C203.617 66.5271 202.546 68.7832 201.247 70.7635C202.481 72.1918 203.714 73.604 204.948 74.9999C206.214 76.3958 207.577 77.7105 209.038 78.9441C209.265 79.1064 209.558 79.3174 209.915 79.5771C210.304 79.8693 210.678 80.1615 211.035 80.4536C211.392 80.7783 211.7 81.1029 211.96 81.4275C212.22 81.7846 212.349 82.1255 212.349 82.4501ZM200.273 40.2808C200.273 39.3394 200.241 37.9922 200.176 36.2392C200.111 34.4862 199.981 32.5709 199.786 30.4932C199.592 28.4156 199.299 26.3055 198.91 24.163C198.52 21.988 198.001 20.024 197.352 18.271C196.702 16.4855 195.907 15.0409 194.966 13.9372C194.024 12.801 192.872 12.2329 191.508 12.2329C190.599 12.2329 189.836 12.5088 189.22 13.0607C188.635 13.5801 188.132 14.2618 187.71 15.1058C187.288 15.9174 186.915 16.7939 186.59 17.7353C186.298 18.6768 185.99 19.5695 185.665 20.4135C185.373 21.2251 185.016 21.9068 184.594 22.4587C184.204 22.9781 183.717 23.2378 183.133 23.2378C182.484 23.2378 181.899 23.1079 181.38 22.8482C180.731 25.1531 180.292 27.4742 180.065 29.8115C179.838 32.1164 179.724 34.4375 179.724 36.7748C179.724 37.5539 179.757 38.6414 179.822 40.0373C179.887 41.4332 180 43.0239 180.162 44.8094C180.325 46.5948 180.52 48.4939 180.747 50.5066C181.007 52.5193 181.331 54.5158 181.721 56.496C182.11 58.4763 182.549 60.3916 183.035 62.242C183.555 64.0599 184.139 65.6668 184.788 67.0627C185.47 68.4586 186.217 69.5786 187.028 70.4226C187.872 71.2342 188.814 71.64 189.853 71.64C190.307 71.64 190.745 71.5588 191.167 71.3965C191.622 71.2017 192.028 70.9582 192.385 70.6661C192.19 70.3739 191.849 69.887 191.362 69.2052C190.875 68.4911 190.323 67.6795 189.707 66.7705C189.122 65.8616 188.505 64.9201 187.856 63.9463C187.207 62.9399 186.606 61.9985 186.055 61.122C185.535 60.2455 185.097 59.4988 184.74 58.882C184.383 58.2328 184.204 57.8108 184.204 57.616C184.204 57.3238 184.318 57.0803 184.545 56.8856C184.772 56.6908 185.048 56.5447 185.373 56.4473C185.697 56.3499 186.022 56.285 186.347 56.2525C186.671 56.1876 186.931 56.1552 187.126 56.1552C188.392 56.1552 189.366 56.3824 190.047 56.8369C190.762 57.2914 191.508 58.0055 192.287 58.9794C193.034 59.9209 193.748 60.8947 194.43 61.9011C195.112 62.875 195.826 63.8489 196.572 64.8228C197.352 63.0373 197.985 61.122 198.472 59.0768C198.959 56.9992 199.332 54.9053 199.592 52.7952C199.851 50.6527 200.03 48.5264 200.127 46.4163C200.225 44.2737 200.273 42.2286 200.273 40.2808Z" fill="white"/>
<path d="M233.775 44.5659C233.775 44.8905 233.742 45.2314 233.678 45.5885C233.613 45.9456 233.548 46.2702 233.483 46.5624C233.418 46.9195 233.353 47.2603 233.288 47.585C233.223 47.8771 233.191 48.1693 233.191 48.4615C233.191 51.4805 233.239 54.5158 233.337 57.5673C233.467 60.5863 233.791 63.6216 234.311 66.6731C234.473 67.8418 234.668 68.978 234.895 70.0817C235.122 71.1855 235.382 72.3055 235.674 73.4417L235.771 73.7338V73.6364C235.869 73.8637 235.95 74.1071 236.015 74.3668C236.112 74.5941 236.161 74.8376 236.161 75.0973C236.161 75.4543 236.064 75.7465 235.869 75.9737C235.706 76.201 235.495 76.3795 235.236 76.5094C234.976 76.6392 234.684 76.7204 234.359 76.7529C234.067 76.7853 233.791 76.8016 233.531 76.8016C232.46 76.8016 231.6 76.6879 230.951 76.4607C230.334 76.201 229.831 75.8601 229.441 75.4381C229.052 74.9836 228.759 74.448 228.565 73.8312C228.402 73.2144 228.256 72.5327 228.126 71.786L227.98 70.9095C227.85 70.4551 227.769 69.9681 227.737 69.4487C227.704 69.189 227.672 69.0754 227.639 69.1078C227.639 69.1078 227.623 68.978 227.591 68.7183C227.136 69.5299 226.601 70.4064 225.984 71.3478C225.4 72.2567 224.718 73.117 223.939 73.9286C223.192 74.7077 222.38 75.3732 221.504 75.9251C220.627 76.4445 219.686 76.7042 218.68 76.7042C217.284 76.7042 216.196 76.2822 215.417 75.4381C214.671 74.5941 214.119 73.5715 213.762 72.3704C213.404 71.1368 213.193 69.8707 213.129 68.5722C213.064 67.2412 213.031 66.0888 213.031 65.1149C213.031 61.4141 213.145 57.7458 213.372 54.11C213.632 50.4742 213.908 46.8221 214.2 43.1538C214.2 43.0564 214.2 42.9265 214.2 42.7642C214.232 42.6019 214.249 42.4721 214.249 42.3747C214.281 41.9202 214.313 41.4982 214.346 41.1086C214.378 40.7191 214.46 40.3457 214.589 39.9886V40.0373C214.719 39.5179 214.898 39.1446 215.125 38.9174C215.385 38.6901 215.774 38.5765 216.294 38.5765C216.781 38.5765 217.268 38.6739 217.755 38.8687C218.241 39.031 218.68 39.2745 219.069 39.5991C219.459 39.8913 219.767 40.2483 219.994 40.6704C220.254 41.0924 220.384 41.5631 220.384 42.0825C220.384 42.3422 220.384 42.6506 220.384 43.0077C220.384 43.3648 220.368 43.6732 220.335 43.9329C220.335 44.1601 220.319 44.4523 220.287 44.8094C220.287 45.134 220.287 45.4099 220.287 45.6372C220.027 48.7536 219.832 51.8538 219.702 54.9378C219.572 57.9893 219.508 61.0895 219.508 64.2384C219.508 65.1149 219.508 65.9914 219.508 66.8679C219.54 67.7444 219.637 68.6209 219.8 69.4974C220.871 68.134 221.796 66.3972 222.575 64.2871C223.354 62.1446 224.004 59.8884 224.523 57.5186C225.075 55.1163 225.513 52.7466 225.838 50.4092C226.195 48.0394 226.455 45.9456 226.617 44.1277C226.617 44.0303 226.617 43.9167 226.617 43.7868C226.649 43.6569 226.666 43.5433 226.666 43.4459C226.698 43.0888 226.731 42.748 226.763 42.4234C226.795 42.0987 226.909 41.7903 227.104 41.4982C227.104 41.206 227.12 40.8976 227.153 40.573C227.185 40.2483 227.266 39.9562 227.396 39.6965C227.526 39.4043 227.704 39.1771 227.932 39.0148C228.191 38.8524 228.548 38.7713 229.003 38.7713C230.301 38.7713 231.324 39.1771 232.071 39.9886C232.817 40.7677 233.223 41.7741 233.288 43.0077C233.45 43.2674 233.564 43.5271 233.629 43.7868C233.726 44.014 233.775 44.2737 233.775 44.5659Z" fill="white"/>
<path d="M245.559 35.7522C245.559 36.3041 245.429 36.7099 245.169 36.9696C244.942 37.1968 244.504 37.3105 243.855 37.3105C243.563 37.3105 243.108 37.278 242.491 37.2131C241.874 37.1157 241.241 36.9858 240.592 36.8235C239.975 36.6612 239.423 36.434 238.937 36.1418C238.482 35.8496 238.255 35.4925 238.255 35.0705C238.255 34.9407 238.304 34.5836 238.401 33.9992C238.498 33.3824 238.612 32.7332 238.742 32.0515C238.904 31.3697 239.034 30.753 239.131 30.2011C239.261 29.6492 239.359 29.3408 239.424 29.2759V29.3246C239.586 29.0649 239.781 28.9026 240.008 28.8376C240.235 28.7727 240.462 28.7403 240.69 28.7403C240.982 28.7403 241.355 28.7889 241.81 28.8863C242.296 28.9513 242.767 29.0649 243.222 29.2272C243.709 29.357 244.147 29.5356 244.536 29.7628C244.926 29.9901 245.169 30.2335 245.267 30.4932C245.364 30.753 245.413 31.11 245.413 31.5645C245.445 31.9865 245.445 32.3761 245.413 32.7332C245.413 32.863 245.397 33.0254 245.364 33.2201C245.364 33.3824 245.364 33.5123 245.364 33.6097C245.364 33.772 245.364 33.9343 245.364 34.0966C245.397 34.2589 245.429 34.4213 245.462 34.5836C245.494 34.7459 245.51 34.9244 245.51 35.1192C245.543 35.314 245.559 35.525 245.559 35.7522ZM247.361 74.5616C247.361 75.3083 247.182 75.8439 246.825 76.1685C246.5 76.4607 245.965 76.6068 245.218 76.6068C244.829 76.6068 244.39 76.5581 243.903 76.4607C243.449 76.3633 242.994 76.2335 242.54 76.0711C242.085 75.8764 241.663 75.6491 241.274 75.3894C240.884 75.1297 240.592 74.8375 240.397 74.5129C240.268 74.3181 240.154 73.7176 240.057 72.7112C239.959 71.7049 239.878 70.4551 239.813 68.9618C239.781 67.4685 239.732 65.7966 239.667 63.9463C239.635 62.0959 239.602 60.2292 239.57 58.3464C239.57 56.4636 239.57 54.6294 239.57 52.8439C239.57 51.0585 239.57 49.5003 239.57 48.1693V44.4198C239.57 44.0952 239.57 43.7706 239.57 43.4459C239.602 43.1213 239.667 42.8454 239.764 42.6181C239.894 42.3584 240.073 42.1474 240.3 41.9851C240.56 41.8228 240.917 41.7416 241.371 41.7416C242.8 41.7416 243.838 42.1474 244.488 42.959C245.169 43.7381 245.591 44.7932 245.754 46.1241C245.916 48.1044 246.03 50.0846 246.095 52.0648C246.192 54.0126 246.273 55.9928 246.338 58.0055C246.403 59.8235 246.452 61.6252 246.484 63.4106C246.549 65.1636 246.663 66.9166 246.825 68.6696C246.857 69.0267 246.89 69.3676 246.922 69.6922C246.955 70.0168 247.004 70.3414 247.069 70.6661C247.133 71.3153 247.198 71.9646 247.263 72.6138C247.328 73.2306 247.361 73.8799 247.361 74.5616Z" fill="white"/>
<path d="M272 71.2504C272 71.8347 271.757 72.3704 271.27 72.8573C270.783 73.3443 270.15 73.7825 269.371 74.1721C268.624 74.5292 267.764 74.8538 266.79 75.146C265.848 75.4381 264.923 75.6816 264.014 75.8764C263.105 76.0387 262.261 76.1685 261.482 76.2659C260.735 76.3633 260.151 76.412 259.729 76.412C258.917 76.412 258.057 76.3471 257.148 76.2172C256.239 76.0874 255.347 75.8926 254.47 75.6329C253.594 75.3407 252.766 74.9836 251.987 74.5616C251.208 74.1071 250.542 73.5715 249.99 72.9547V73.0034C249.73 72.7437 249.487 72.4353 249.26 72.0782C249 71.7211 248.87 71.3153 248.87 70.8608C248.87 70.5687 248.984 70.309 249.211 70.0817C249.438 69.8545 249.698 69.6922 249.99 69.5948C250.315 68.8157 250.656 68.0366 251.013 67.2575C251.37 66.4784 251.727 65.7155 252.084 64.9688L252.814 63.2645C254.535 59.8884 256.126 56.5447 257.586 53.2335C259.08 49.9223 260.557 46.4975 262.018 42.959L260.07 43.0564L257.684 43.2025L256.077 43.3972C255.622 43.4622 255.184 43.5109 254.762 43.5433C254.373 43.5758 253.967 43.592 253.545 43.592C252.311 43.592 251.694 42.9915 251.694 41.7903C251.694 41.2385 251.759 40.7515 251.889 40.3295C252.019 39.875 252.263 39.4692 252.62 39.1121C252.782 38.9174 253.204 38.7388 253.886 38.5765C254.6 38.3817 255.428 38.2194 256.369 38.0896C257.311 37.9272 258.317 37.7812 259.388 37.6513C260.492 37.5215 261.547 37.4078 262.553 37.3105C263.56 37.2131 264.452 37.1481 265.231 37.1157C266.043 37.0508 266.611 37.0183 266.936 37.0183C267.52 37.0183 268.056 37.0994 268.543 37.2618C269.062 37.4241 269.322 37.911 269.322 38.7226C269.322 39.1771 269.208 39.6802 268.981 40.2321C268.754 40.7515 268.51 41.2222 268.251 41.6442C268.315 41.8066 268.348 42.05 268.348 42.3747C268.348 42.7318 268.218 43.3323 267.958 44.1764C267.699 45.0204 267.342 46.043 266.887 47.2441C266.465 48.4452 265.962 49.7762 265.378 51.237C264.793 52.6979 264.176 54.1912 263.527 55.7169C262.91 57.2427 262.277 58.7684 261.628 60.2942C260.979 61.8199 260.362 63.2483 259.778 64.5793L257.051 70.9095C257.603 71.0394 258.236 71.1043 258.95 71.1043C260.411 71.1043 261.79 70.8284 263.089 70.2765C264.42 69.7246 265.556 69.1728 266.498 68.6209C267.049 68.3287 267.536 68.0853 267.958 67.8905C268.38 67.6632 268.721 67.5496 268.981 67.5496C269.403 67.5496 269.793 67.6795 270.15 67.9392C270.539 68.1664 270.864 68.4748 271.124 68.8644C271.416 69.2215 271.627 69.611 271.757 70.033C271.919 70.4551 272 70.8608 272 71.2504Z" fill="white"/>
<path d="M20.8148 73.9062C18.824 73.9062 16.9625 73.7252 15.2302 73.3633C13.5238 73.0271 12.0888 72.5747 10.9254 72.0059C9.76189 71.4371 8.80525 70.8941 8.05546 70.377C7.33153 69.8599 6.72394 69.3428 6.23269 68.8257L7.20225 59.4016C8.2623 60.8236 9.68432 62.0647 11.4683 63.1247C13.2523 64.1589 15.1785 64.676 17.2469 64.676C19.3153 64.676 20.8019 64.4562 21.7068 64.0167C22.6376 63.5772 23.103 62.7757 23.103 61.6122C23.103 60.3712 22.573 59.3111 21.5129 58.4321C20.4787 57.553 18.6818 56.4929 16.1222 55.2519C15.1914 54.7865 14.4028 54.3728 13.7565 54.0109C13.1101 53.623 12.244 53.0025 11.1581 52.1493C10.098 51.2703 9.23186 50.3653 8.55963 49.4346C7.88741 48.4779 7.29274 47.2627 6.77565 45.789C6.25855 44.2894 6 42.6864 6 40.98C6 31.7498 11.2098 27.1347 21.6293 27.1347C23.284 27.1347 24.8353 27.3157 26.2832 27.6777C27.7569 28.0138 28.9074 28.3887 29.7348 28.8024C30.5621 29.216 31.3119 29.7073 31.9842 30.2761C32.6822 30.819 33.1218 31.2069 33.3028 31.4396C33.4837 31.6464 33.613 31.8144 33.6906 31.9437L31.7515 39.4287C30.7431 38.2394 29.4762 37.3603 27.9508 36.7915C26.4512 36.1969 25.0163 35.8995 23.646 35.8995C20.3365 35.8995 18.6818 36.9337 18.6818 39.0021C18.6818 39.5451 18.7852 40.0363 18.9921 40.4758C19.1989 40.9154 19.535 41.3161 20.0004 41.6781C20.4658 42.0401 20.8924 42.3503 21.2802 42.6089C21.6939 42.8674 22.2498 43.1906 22.9479 43.5784C23.6718 43.9404 24.2148 44.2377 24.5767 44.4704C28.3515 46.0734 31.118 47.9738 32.8762 50.1714C34.6601 52.3691 35.5521 55.0451 35.5521 58.1994C35.5521 63.3186 34.2852 67.2227 31.7515 69.9116C29.2435 72.5747 25.598 73.9062 20.8148 73.9062Z" stroke="#0047B3" stroke-width="10.4975" stroke-linejoin="round" mask="url(#path-1-outside-1_1_12)"/>
<path d="M52.6148 73.0918H40.0882V47.9996L37.7612 46.5647V42.415L46.0994 40.1268H52.6924V45.1297C52.8217 44.9487 53.0027 44.716 53.2354 44.4316C53.4939 44.1214 53.9593 43.6431 54.6315 42.9967C55.3038 42.3503 55.9889 41.7815 56.687 41.2903C57.4109 40.799 58.2771 40.3595 59.2854 39.9717C60.3196 39.558 61.3409 39.3511 62.3492 39.3511C64.9347 39.3511 66.9126 39.8424 68.2829 40.8249C69.6532 41.8074 70.6228 43.4104 71.1916 45.6339C72.0706 44.1084 73.4151 42.6864 75.2249 41.3678C77.0606 40.0234 79.0773 39.3511 81.275 39.3511C83.7053 39.3511 85.5928 39.7778 86.9372 40.631C88.3075 41.4583 89.3029 42.8803 89.9234 44.897C90.544 46.9137 90.8542 49.7577 90.8542 53.4291V73.0918H78.25V52.3044C78.25 51.1668 77.9785 50.2748 77.4355 49.6285C76.8926 48.9821 76.0652 48.6589 74.9535 48.6589C74.2037 48.6589 73.1824 49.2794 71.8897 50.5205C71.9672 51.7615 72.006 53.1059 72.006 54.5538V73.0918H59.2078V52.3044C59.2854 49.8741 58.2512 48.6589 56.1053 48.6589C55.9501 48.6589 55.795 48.6718 55.6399 48.6977C55.5106 48.7235 55.3813 48.7494 55.252 48.7753C55.1486 48.8011 55.0193 48.8528 54.8642 48.9304C54.7349 48.9821 54.6186 49.0338 54.5152 49.0855C54.4118 49.1114 54.2954 49.176 54.1661 49.2794C54.0369 49.357 53.9334 49.4216 53.8559 49.4733C53.7783 49.525 53.662 49.6155 53.5068 49.7448C53.3776 49.8482 53.2741 49.9258 53.1966 49.9775C53.1449 50.0292 53.0415 50.1197 52.8863 50.249C52.757 50.3524 52.6666 50.43 52.6148 50.4817V73.0918Z" stroke="#0047B3" stroke-width="10.4975" stroke-linejoin="round" mask="url(#path-1-outside-1_1_12)"/>
<path d="M112.516 69.6401L112.128 70.0668C111.87 70.377 111.469 70.739 110.926 71.1527C110.409 71.5663 109.801 71.98 109.103 72.3937C108.431 72.8074 107.604 73.1564 106.621 73.4408C105.639 73.7511 104.63 73.9062 103.596 73.9062C96.6152 73.9062 93.1248 70.4546 93.1248 63.5513C93.1248 62.2069 93.3704 60.9788 93.8617 59.867C94.3529 58.7294 94.9864 57.7728 95.762 56.9971C96.5377 56.2215 97.4684 55.5363 98.5543 54.9416C99.6402 54.3211 100.726 53.8428 101.812 53.5067C102.924 53.1447 104.087 52.8474 105.302 52.6147C106.518 52.382 107.604 52.2269 108.56 52.1493C109.517 52.0718 110.435 52.033 111.314 52.033V51.3349C111.314 49.7577 110.887 48.646 110.034 47.9996C109.207 47.3532 107.862 47.0301 106.001 47.0301C104.398 47.0301 102.73 47.224 100.998 47.6118C99.2653 47.9738 97.908 48.4133 96.9255 48.9304L94.4434 43.656C96.2015 42.5184 98.4897 41.523 101.308 40.6697C104.126 39.7907 106.996 39.3511 109.918 39.3511C112.503 39.3511 114.636 39.6097 116.317 40.1268C117.997 40.618 119.355 41.4712 120.389 42.6864C121.449 43.8758 122.199 45.4012 122.638 47.2627C123.078 49.0984 123.297 51.4383 123.297 54.2823V70.0668L124.383 73.0918H113.757L112.516 69.6401ZM109.452 67.0805C109.788 67.0805 110.099 67.0159 110.383 66.8866C110.693 66.7315 110.926 66.5893 111.081 66.46C111.236 66.3049 111.314 66.2273 111.314 66.2273V56.9195C109.737 56.9195 108.483 57.3591 107.552 58.2381C106.621 59.0914 106.156 60.4229 106.156 62.2327C106.156 65.4646 107.255 67.0805 109.452 67.0805Z" stroke="#0047B3" stroke-width="10.4975" stroke-linejoin="round" mask="url(#path-1-outside-1_1_12)"/>
<path d="M140.784 73.0918H128.257V47.9996L125.93 46.5647V42.1823L134.269 40.1268H137.41L138.535 49.357C139.595 43.0225 142.995 39.8553 148.734 39.8553C149.381 39.8553 150.053 39.9717 150.751 40.2044L149.433 54.0109C148.89 53.5196 147.7 53.274 145.865 53.274C143.227 53.274 141.534 53.9721 140.784 55.3682V73.0918Z" stroke="#0047B3" stroke-width="10.4975" stroke-linejoin="round" mask="url(#path-1-outside-1_1_12)"/>
<path d="M162.897 73.9062C159.407 73.9062 156.963 72.8591 155.567 70.7648C154.197 68.6706 153.512 65.1285 153.512 60.1385V46.9525H150.836V41.5617L155.412 40.1268L159.368 31.0905H166.193V40.1268H172.554V46.9525H166.077V61.3795C166.077 63.4479 166.374 64.8182 166.969 65.4904C167.564 66.1627 168.482 66.4988 169.723 66.4988C170.266 66.4988 170.757 66.4341 171.196 66.3049C171.636 66.1756 171.998 65.9946 172.282 65.7619V71.0363C171.894 71.4241 171.39 71.812 170.77 72.1998C170.149 72.5618 169.115 72.9366 167.667 73.3245C166.245 73.7123 164.655 73.9062 162.897 73.9062Z" stroke="#0047B3" stroke-width="10.4975" stroke-linejoin="round" mask="url(#path-1-outside-1_1_12)"/>
<path d="M212.349 82.4501C212.349 82.8397 212.138 83.1967 211.716 83.5214C211.294 83.8785 210.791 84.1869 210.207 84.4466C209.623 84.7063 209.038 84.901 208.454 85.0309C207.87 85.1932 207.415 85.2744 207.09 85.2744C206.344 85.2744 205.435 84.8848 204.364 84.1057C203.325 83.3266 202.286 82.4176 201.247 81.3788C200.208 80.34 199.234 79.285 198.325 78.2137C197.417 77.1424 196.735 76.3146 196.28 75.7303C195.306 76.3146 194.268 76.7366 193.164 76.9963C192.093 77.256 190.989 77.3859 189.853 77.3859C187.937 77.3859 186.249 77.0288 184.788 76.3146C183.36 75.6004 182.11 74.6428 181.039 73.4417C179.968 72.2405 179.043 70.8771 178.263 69.3513C177.517 67.7931 176.884 66.17 176.364 64.4819C175.845 62.7938 175.423 61.1058 175.098 59.4177C174.774 57.7296 174.498 56.1552 174.27 54.6943C173.784 51.8376 173.394 49.0296 173.102 46.2702C172.842 43.5109 172.712 40.7028 172.712 37.8461C172.712 35.4114 172.858 32.8468 173.151 30.1524C173.443 27.4255 173.93 24.7473 174.611 22.1178C175.293 19.4559 176.202 16.94 177.338 14.5702C178.507 12.1679 179.951 10.0579 181.672 8.23994C182.029 7.85038 182.484 7.41214 183.035 6.92519C183.587 6.43825 184.107 6.19478 184.594 6.19478C184.951 6.19478 185.275 6.29217 185.568 6.48694C185.892 6.68172 186.152 6.90896 186.347 7.16866C187.905 6.38955 189.593 6 191.411 6C193.975 6 196.167 6.60056 197.985 7.80169C199.803 8.97035 201.328 10.5286 202.562 12.4763C203.795 14.3917 204.753 16.5829 205.435 19.0501C206.149 21.5173 206.685 24.0331 207.042 26.5977C207.399 29.1298 207.626 31.597 207.723 33.9992C207.821 36.4015 207.87 38.5278 207.87 40.3782C207.87 42.7155 207.772 45.2476 207.577 47.9745C207.383 50.6689 207.026 53.3796 206.506 56.1065C206.019 58.8333 205.337 61.4628 204.461 63.9949C203.617 66.5271 202.546 68.7832 201.247 70.7635C202.481 72.1918 203.714 73.604 204.948 74.9999C206.214 76.3958 207.577 77.7105 209.038 78.9441C209.265 79.1064 209.558 79.3174 209.915 79.5771C210.304 79.8693 210.678 80.1615 211.035 80.4536C211.392 80.7783 211.7 81.1029 211.96 81.4275C212.22 81.7846 212.349 82.1255 212.349 82.4501ZM200.273 40.2808C200.273 39.3394 200.241 37.9922 200.176 36.2392C200.111 34.4862 199.981 32.5709 199.786 30.4932C199.592 28.4156 199.299 26.3055 198.91 24.163C198.52 21.988 198.001 20.024 197.352 18.271C196.702 16.4855 195.907 15.0409 194.966 13.9372C194.024 12.801 192.872 12.2329 191.508 12.2329C190.599 12.2329 189.836 12.5088 189.22 13.0607C188.635 13.5801 188.132 14.2618 187.71 15.1058C187.288 15.9174 186.915 16.7939 186.59 17.7353C186.298 18.6768 185.99 19.5695 185.665 20.4135C185.373 21.2251 185.016 21.9068 184.594 22.4587C184.204 22.9781 183.717 23.2378 183.133 23.2378C182.484 23.2378 181.899 23.1079 181.38 22.8482C180.731 25.1531 180.292 27.4742 180.065 29.8115C179.838 32.1164 179.724 34.4375 179.724 36.7748C179.724 37.5539 179.757 38.6414 179.822 40.0373C179.887 41.4332 180 43.0239 180.162 44.8094C180.325 46.5948 180.52 48.4939 180.747 50.5066C181.007 52.5193 181.331 54.5158 181.721 56.496C182.11 58.4763 182.549 60.3916 183.035 62.242C183.555 64.0599 184.139 65.6668 184.788 67.0627C185.47 68.4586 186.217 69.5786 187.028 70.4226C187.872 71.2342 188.814 71.64 189.853 71.64C190.307 71.64 190.745 71.5588 191.167 71.3965C191.622 71.2017 192.028 70.9582 192.385 70.6661C192.19 70.3739 191.849 69.887 191.362 69.2052C190.875 68.4911 190.323 67.6795 189.707 66.7705C189.122 65.8616 188.505 64.9201 187.856 63.9463C187.207 62.9399 186.606 61.9985 186.055 61.122C185.535 60.2455 185.097 59.4988 184.74 58.882C184.383 58.2328 184.204 57.8108 184.204 57.616C184.204 57.3238 184.318 57.0803 184.545 56.8856C184.772 56.6908 185.048 56.5447 185.373 56.4473C185.697 56.3499 186.022 56.285 186.347 56.2525C186.671 56.1876 186.931 56.1552 187.126 56.1552C188.392 56.1552 189.366 56.3824 190.047 56.8369C190.762 57.2914 191.508 58.0055 192.287 58.9794C193.034 59.9209 193.748 60.8947 194.43 61.9011C195.112 62.875 195.826 63.8489 196.572 64.8228C197.352 63.0373 197.985 61.122 198.472 59.0768C198.959 56.9992 199.332 54.9053 199.592 52.7952C199.851 50.6527 200.03 48.5264 200.127 46.4163C200.225 44.2737 200.273 42.2286 200.273 40.2808Z" stroke="#0047B3" stroke-width="10.4975" stroke-linejoin="round" mask="url(#path-1-outside-1_1_12)"/>
<path d="M233.775 44.5659C233.775 44.8905 233.742 45.2314 233.678 45.5885C233.613 45.9456 233.548 46.2702 233.483 46.5624C233.418 46.9195 233.353 47.2603 233.288 47.585C233.223 47.8771 233.191 48.1693 233.191 48.4615C233.191 51.4805 233.239 54.5158 233.337 57.5673C233.467 60.5863 233.791 63.6216 234.311 66.6731C234.473 67.8418 234.668 68.978 234.895 70.0817C235.122 71.1855 235.382 72.3055 235.674 73.4417L235.771 73.7338V73.6364C235.869 73.8637 235.95 74.1071 236.015 74.3668C236.112 74.5941 236.161 74.8376 236.161 75.0973C236.161 75.4543 236.064 75.7465 235.869 75.9737C235.706 76.201 235.495 76.3795 235.236 76.5094C234.976 76.6392 234.684 76.7204 234.359 76.7529C234.067 76.7853 233.791 76.8016 233.531 76.8016C232.46 76.8016 231.6 76.6879 230.951 76.4607C230.334 76.201 229.831 75.8601 229.441 75.4381C229.052 74.9836 228.759 74.448 228.565 73.8312C228.402 73.2144 228.256 72.5327 228.126 71.786L227.98 70.9095C227.85 70.4551 227.769 69.9681 227.737 69.4487C227.704 69.189 227.672 69.0754 227.639 69.1078C227.639 69.1078 227.623 68.978 227.591 68.7183C227.136 69.5299 226.601 70.4064 225.984 71.3478C225.4 72.2567 224.718 73.117 223.939 73.9286C223.192 74.7077 222.38 75.3732 221.504 75.9251C220.627 76.4445 219.686 76.7042 218.68 76.7042C217.284 76.7042 216.196 76.2822 215.417 75.4381C214.671 74.5941 214.119 73.5715 213.762 72.3704C213.404 71.1368 213.193 69.8707 213.129 68.5722C213.064 67.2412 213.031 66.0888 213.031 65.1149C213.031 61.4141 213.145 57.7458 213.372 54.11C213.632 50.4742 213.908 46.8221 214.2 43.1538C214.2 43.0564 214.2 42.9265 214.2 42.7642C214.232 42.6019 214.249 42.4721 214.249 42.3747C214.281 41.9202 214.313 41.4982 214.346 41.1086C214.378 40.7191 214.46 40.3457 214.589 39.9886V40.0373C214.719 39.5179 214.898 39.1446 215.125 38.9174C215.385 38.6901 215.774 38.5765 216.294 38.5765C216.781 38.5765 217.268 38.6739 217.755 38.8687C218.241 39.031 218.68 39.2745 219.069 39.5991C219.459 39.8913 219.767 40.2483 219.994 40.6704C220.254 41.0924 220.384 41.5631 220.384 42.0825C220.384 42.3422 220.384 42.6506 220.384 43.0077C220.384 43.3648 220.368 43.6732 220.335 43.9329C220.335 44.1601 220.319 44.4523 220.287 44.8094C220.287 45.134 220.287 45.4099 220.287 45.6372C220.027 48.7536 219.832 51.8538 219.702 54.9378C219.572 57.9893 219.508 61.0895 219.508 64.2384C219.508 65.1149 219.508 65.9914 219.508 66.8679C219.54 67.7444 219.637 68.6209 219.8 69.4974C220.871 68.134 221.796 66.3972 222.575 64.2871C223.354 62.1446 224.004 59.8884 224.523 57.5186C225.075 55.1163 225.513 52.7466 225.838 50.4092C226.195 48.0394 226.455 45.9456 226.617 44.1277C226.617 44.0303 226.617 43.9167 226.617 43.7868C226.649 43.6569 226.666 43.5433 226.666 43.4459C226.698 43.0888 226.731 42.748 226.763 42.4234C226.795 42.0987 226.909 41.7903 227.104 41.4982C227.104 41.206 227.12 40.8976 227.153 40.573C227.185 40.2483 227.266 39.9562 227.396 39.6965C227.526 39.4043 227.704 39.1771 227.932 39.0148C228.191 38.8524 228.548 38.7713 229.003 38.7713C230.301 38.7713 231.324 39.1771 232.071 39.9886C232.817 40.7677 233.223 41.7741 233.288 43.0077C233.45 43.2674 233.564 43.5271 233.629 43.7868C233.726 44.014 233.775 44.2737 233.775 44.5659Z" stroke="#0047B3" stroke-width="10.4975" stroke-linejoin="round" mask="url(#path-1-outside-1_1_12)"/>
<path d="M245.559 35.7522C245.559 36.3041 245.429 36.7099 245.169 36.9696C244.942 37.1968 244.504 37.3105 243.855 37.3105C243.563 37.3105 243.108 37.278 242.491 37.2131C241.874 37.1157 241.241 36.9858 240.592 36.8235C239.975 36.6612 239.423 36.434 238.937 36.1418C238.482 35.8496 238.255 35.4925 238.255 35.0705C238.255 34.9407 238.304 34.5836 238.401 33.9992C238.498 33.3824 238.612 32.7332 238.742 32.0515C238.904 31.3697 239.034 30.753 239.131 30.2011C239.261 29.6492 239.359 29.3408 239.424 29.2759V29.3246C239.586 29.0649 239.781 28.9026 240.008 28.8376C240.235 28.7727 240.462 28.7403 240.69 28.7403C240.982 28.7403 241.355 28.7889 241.81 28.8863C242.296 28.9513 242.767 29.0649 243.222 29.2272C243.709 29.357 244.147 29.5356 244.536 29.7628C244.926 29.9901 245.169 30.2335 245.267 30.4932C245.364 30.753 245.413 31.11 245.413 31.5645C245.445 31.9865 245.445 32.3761 245.413 32.7332C245.413 32.863 245.397 33.0254 245.364 33.2201C245.364 33.3824 245.364 33.5123 245.364 33.6097C245.364 33.772 245.364 33.9343 245.364 34.0966C245.397 34.2589 245.429 34.4213 245.462 34.5836C245.494 34.7459 245.51 34.9244 245.51 35.1192C245.543 35.314 245.559 35.525 245.559 35.7522ZM247.361 74.5616C247.361 75.3083 247.182 75.8439 246.825 76.1685C246.5 76.4607 245.965 76.6068 245.218 76.6068C244.829 76.6068 244.39 76.5581 243.903 76.4607C243.449 76.3633 242.994 76.2335 242.54 76.0711C242.085 75.8764 241.663 75.6491 241.274 75.3894C240.884 75.1297 240.592 74.8375 240.397 74.5129C240.268 74.3181 240.154 73.7176 240.057 72.7112C239.959 71.7049 239.878 70.4551 239.813 68.9618C239.781 67.4685 239.732 65.7966 239.667 63.9463C239.635 62.0959 239.602 60.2292 239.57 58.3464C239.57 56.4636 239.57 54.6294 239.57 52.8439C239.57 51.0585 239.57 49.5003 239.57 48.1693V44.4198C239.57 44.0952 239.57 43.7706 239.57 43.4459C239.602 43.1213 239.667 42.8454 239.764 42.6181C239.894 42.3584 240.073 42.1474 240.3 41.9851C240.56 41.8228 240.917 41.7416 241.371 41.7416C242.8 41.7416 243.838 42.1474 244.488 42.959C245.169 43.7381 245.591 44.7932 245.754 46.1241C245.916 48.1044 246.03 50.0846 246.095 52.0648C246.192 54.0126 246.273 55.9928 246.338 58.0055C246.403 59.8235 246.452 61.6252 246.484 63.4106C246.549 65.1636 246.663 66.9166 246.825 68.6696C246.857 69.0267 246.89 69.3676 246.922 69.6922C246.955 70.0168 247.004 70.3414 247.069 70.6661C247.133 71.3153 247.198 71.9646 247.263 72.6138C247.328 73.2306 247.361 73.8799 247.361 74.5616Z" stroke="#0047B3" stroke-width="10.4975" stroke-linejoin="round" mask="url(#path-1-outside-1_1_12)"/>
<path d="M272 71.2504C272 71.8347 271.757 72.3704 271.27 72.8573C270.783 73.3443 270.15 73.7825 269.371 74.1721C268.624 74.5292 267.764 74.8538 266.79 75.146C265.848 75.4381 264.923 75.6816 264.014 75.8764C263.105 76.0387 262.261 76.1685 261.482 76.2659C260.735 76.3633 260.151 76.412 259.729 76.412C258.917 76.412 258.057 76.3471 257.148 76.2172C256.239 76.0874 255.347 75.8926 254.47 75.6329C253.594 75.3407 252.766 74.9836 251.987 74.5616C251.208 74.1071 250.542 73.5715 249.99 72.9547V73.0034C249.73 72.7437 249.487 72.4353 249.26 72.0782C249 71.7211 248.87 71.3153 248.87 70.8608C248.87 70.5687 248.984 70.309 249.211 70.0817C249.438 69.8545 249.698 69.6922 249.99 69.5948C250.315 68.8157 250.656 68.0366 251.013 67.2575C251.37 66.4784 251.727 65.7155 252.084 64.9688L252.814 63.2645C254.535 59.8884 256.126 56.5447 257.586 53.2335C259.08 49.9223 260.557 46.4975 262.018 42.959L260.07 43.0564L257.684 43.2025L256.077 43.3972C255.622 43.4622 255.184 43.5109 254.762 43.5433C254.373 43.5758 253.967 43.592 253.545 43.592C252.311 43.592 251.694 42.9915 251.694 41.7903C251.694 41.2385 251.759 40.7515 251.889 40.3295C252.019 39.875 252.263 39.4692 252.62 39.1121C252.782 38.9174 253.204 38.7388 253.886 38.5765C254.6 38.3817 255.428 38.2194 256.369 38.0896C257.311 37.9272 258.317 37.7812 259.388 37.6513C260.492 37.5215 261.547 37.4078 262.553 37.3105C263.56 37.2131 264.452 37.1481 265.231 37.1157C266.043 37.0508 266.611 37.0183 266.936 37.0183C267.52 37.0183 268.056 37.0994 268.543 37.2618C269.062 37.4241 269.322 37.911 269.322 38.7226C269.322 39.1771 269.208 39.6802 268.981 40.2321C268.754 40.7515 268.51 41.2222 268.251 41.6442C268.315 41.8066 268.348 42.05 268.348 42.3747C268.348 42.7318 268.218 43.3323 267.958 44.1764C267.699 45.0204 267.342 46.043 266.887 47.2441C266.465 48.4452 265.962 49.7762 265.378 51.237C264.793 52.6979 264.176 54.1912 263.527 55.7169C262.91 57.2427 262.277 58.7684 261.628 60.2942C260.979 61.8199 260.362 63.2483 259.778 64.5793L257.051 70.9095C257.603 71.0394 258.236 71.1043 258.95 71.1043C260.411 71.1043 261.79 70.8284 263.089 70.2765C264.42 69.7246 265.556 69.1728 266.498 68.6209C267.049 68.3287 267.536 68.0853 267.958 67.8905C268.38 67.6632 268.721 67.5496 268.981 67.5496C269.403 67.5496 269.793 67.6795 270.15 67.9392C270.539 68.1664 270.864 68.4748 271.124 68.8644C271.416 69.2215 271.627 69.611 271.757 70.033C271.919 70.4551 272 70.8608 272 71.2504Z" stroke="#0047B3" stroke-width="10.4975" stroke-linejoin="round" mask="url(#path-1-outside-1_1_12)"/>
</svg>
